<?xml version="1.0" standalone="no"?>
<!DOCTYPE svg PUBLIC "-//W3C//DTD SVG 20010904//EN"
 "http://www.w3.org/TR/2001/REC-SVG-20010904/DTD/svg10.dtd">
<svg version="1.0" xmlns="http://www.w3.org/2000/svg"
 width="736.000000pt" height="797.000000pt" viewBox="0 0 736.000000 797.000000"
 preserveAspectRatio="xMidYMid meet">

<g transform="translate(0.000000,797.000000) scale(0.100000,-0.100000)"
fill="#000000" stroke="none">
<path d="M2790 7596 c-193 -28 -429 -96 -437 -126 -3 -12 -12 -16 -27 -13 -13
3 -50 -7 -82 -22 -46 -22 -87 -56 -189 -160 l-130 -133 -140 -4 c-128 -5 -150
-9 -255 -43 -63 -20 -172 -59 -242 -86 -114 -45 -133 -56 -197 -115 -39 -36
-98 -102 -131 -146 -68 -90 -159 -271 -185 -366 -15 -59 -13 -122 4 -122 16 0
41 38 41 63 0 27 99 223 137 273 105 135 147 185 184 221 50 47 157 123 174
123 6 0 46 22 90 50 43 27 95 52 114 56 20 3 59 14 86 25 48 18 189 39 267 39
l37 0 -43 -92 c-55 -118 -60 -138 -35 -138 11 0 34 23 60 63 59 86 172 217
267 309 67 66 96 86 186 127 121 57 254 102 371 125 110 22 325 46 366 41 19
-2 72 -9 119 -15 135 -17 390 -96 390 -120 0 -5 -26 -23 -58 -40 -84 -45 -172
-119 -217 -184 -21 -31 -36 -58 -34 -60 2 -2 51 30 109 71 121 87 231 143 344
173 43 11 86 25 95 29 31 17 161 41 216 41 75 0 238 -25 314 -49 138 -43 293
-166 355 -281 16 -29 38 -64 49 -76 38 -44 51 2 17 58 -40 66 -38 67 126 117
91 28 115 31 230 31 75 0 158 -7 199 -15 38 -8 89 -15 113 -15 42 0 173 -46
282 -98 297 -144 530 -440 530 -672 0 -49 17 -53 25 -6 13 66 -13 175 -62 266
-110 205 -202 302 -418 445 -123 81 -235 128 -418 175 -127 32 -182 36 -319
20 -111 -13 -196 -39 -269 -85 -33 -20 -63 -35 -68 -33 -5 2 -46 35 -91 73
-89 77 -180 136 -244 159 -22 8 -94 27 -159 42 -101 23 -131 26 -210 21 -102
-7 -250 -41 -348 -81 -55 -22 -65 -23 -72 -11 -10 18 -126 78 -212 110 -158
59 -427 86 -605 61z"/>
<path d="M6310 6496 c0 -8 22 -22 53 -32 257 -84 495 -297 623 -557 23 -48 48
-114 54 -145 6 -31 18 -79 26 -105 8 -28 16 -120 20 -215 6 -149 4 -175 -14
-238 -11 -40 -26 -82 -33 -95 l-12 -23 -16 24 c-49 75 -149 172 -195 189 -38
15 -32 1 20 -49 110 -108 189 -233 219 -347 26 -100 18 -249 -22 -393 -47
-173 -234 -364 -475 -486 -47 -24 -89 -48 -93 -54 -8 -13 20 -13 63 -1 39 11
42 6 67 -92 21 -84 11 -157 -35 -254 -29 -64 -127 -173 -153 -173 -8 0 -18 26
-26 61 -14 70 -52 169 -64 169 -5 0 -6 -8 -3 -17 18 -57 36 -173 36 -226 0
-89 -34 -241 -70 -314 -45 -91 -136 -170 -275 -238 -108 -52 -175 -75 -175
-58 0 4 26 42 56 83 57 75 84 126 84 155 0 27 -14 15 -65 -56 -86 -122 -210
-228 -343 -293 -89 -44 -141 -60 -307 -95 -197 -41 -248 -46 -265 -26 -14 17
-113 65 -134 65 -7 0 -30 7 -49 15 -20 8 -57 15 -82 15 -39 0 -52 5 -78 32
-78 78 -228 148 -317 148 -46 0 -157 -33 -225 -67 -27 -14 -99 -58 -160 -99
l-110 -73 -47 9 c-55 11 -149 49 -224 91 -34 20 -63 29 -81 27 -28 -4 -28 -4
31 -60 32 -31 56 -60 52 -66 -12 -19 -99 -41 -246 -63 -119 -17 -171 -20 -288
-15 -261 11 -386 50 -491 155 -36 36 -71 74 -76 84 -13 25 -48 27 -53 4 -2
-10 8 -34 23 -53 15 -19 25 -37 24 -38 -40 -35 -176 -60 -269 -51 -229 22
-417 117 -514 258 -29 41 -44 80 -62 157 -26 110 -29 173 -13 235 18 69 22 95
12 95 -16 0 -41 -33 -71 -91 -24 -47 -32 -55 -72 -67 -66 -20 -213 -19 -290 1
-131 35 -346 164 -459 276 -93 93 -215 297 -240 403 -22 92 -24 217 -6 338 21
139 34 176 113 305 33 55 57 101 51 103 -15 6 -73 -34 -97 -67 -12 -17 -26
-31 -30 -31 -14 0 -109 134 -142 200 -18 35 -46 116 -63 180 -55 206 -40 435
43 691 61 186 147 315 324 487 58 57 106 105 106 108 0 2 -24 -8 -52 -22 -258
-129 -445 -400 -519 -749 -65 -308 47 -744 232 -899 31 -27 32 -29 20 -59 -68
-168 -96 -311 -87 -438 26 -348 272 -656 681 -850 166 -79 304 -90 436 -35 14
6 17 -4 21 -64 8 -106 50 -183 163 -295 74 -74 108 -99 190 -142 120 -62 183
-79 335 -94 135 -13 173 -6 250 46 l51 34 72 -55 c90 -69 164 -104 292 -140
92 -25 114 -28 280 -28 143 0 193 3 245 18 124 34 147 46 185 92 27 33 43 44
63 43 37 -1 157 -61 157 -79 0 -8 -24 -27 -54 -42 -74 -38 -77 -41 -102 -115
-17 -53 -21 -82 -17 -153 4 -76 9 -98 40 -162 42 -84 136 -185 220 -236 93
-56 161 -75 283 -80 92 -4 116 -8 150 -28 73 -42 126 -56 235 -59 176 -7 315
38 395 126 49 55 87 180 84 279 -2 76 18 150 41 150 5 0 19 15 30 33 27 43 25
106 -4 190 -27 74 -22 86 28 73 32 -8 160 19 266 56 96 34 195 86 289 152 58
41 71 46 120 46 84 1 203 25 268 55 73 33 160 100 180 138 8 17 27 42 42 56
53 50 111 223 111 329 0 57 1 61 38 87 114 85 168 161 199 278 20 79 12 199
-16 252 -19 36 -19 65 0 65 26 0 211 124 280 188 135 126 209 263 238 442 13
78 -1 204 -34 309 -25 79 -25 79 -6 113 10 18 32 71 48 118 27 81 28 93 27
255 -1 150 -4 181 -27 265 -107 396 -390 691 -762 796 -63 17 -75 17 -75 0z
m-1803 -3736 c28 -16 82 -61 120 -100 37 -38 71 -70 76 -70 4 0 7 11 7 25 0
32 20 32 95 4 78 -29 119 -68 162 -157 36 -72 38 -81 38 -171 0 -84 -3 -102
-25 -139 -13 -23 -38 -52 -55 -63 -29 -20 -29 -20 -5 -16 14 2 32 8 41 11 25
11 30 -18 16 -92 -11 -59 -18 -73 -66 -124 -138 -150 -397 -192 -606 -99 -23
10 -58 33 -78 50 -43 39 -68 38 -38 -1 32 -40 27 -45 -38 -37 -124 17 -231 70
-316 155 -126 125 -163 273 -104 411 19 45 64 103 80 103 4 0 13 -15 19 -32
l13 -33 8 43 c23 119 113 218 264 293 118 57 153 67 260 68 71 1 86 -2 132
-29z"/>
<path d="M3806 1686 c-19 -11 -55 -16 -107 -16 -105 0 -173 -26 -229 -86 -57
-62 -80 -116 -80 -190 0 -51 5 -69 35 -120 37 -62 99 -125 150 -152 22 -11 55
-15 122 -13 58 1 114 -4 153 -14 116 -30 245 2 324 81 50 51 54 64 57 176 3
85 1 98 -25 148 -69 137 -149 191 -291 197 -59 3 -88 0 -109 -11z m-61 -56
c-8 -25 -5 -25 73 0 55 17 73 19 127 10 119 -19 187 -64 224 -149 18 -42 21
-66 18 -144 -3 -86 -6 -98 -30 -131 -37 -48 -66 -62 -162 -76 -122 -18 -211
-2 -277 50 -38 29 -36 8 2 -23 36 -31 37 -37 7 -37 -122 0 -277 126 -277 225
0 128 71 222 204 271 79 30 99 30 91 4z"/>
<path d="M3205 1126 c-18 -8 -38 -10 -50 -5 -59 23 -164 -3 -211 -52 -26 -27
-29 -37 -29 -99 0 -60 4 -74 30 -112 33 -47 100 -87 150 -89 17 0 88 2 158 5
135 5 151 10 209 64 34 31 54 115 38 157 -17 43 -49 84 -93 116 -35 25 -49 29
-106 29 -36 -1 -80 -7 -96 -14z m-29 -51 c32 -20 74 -20 74 1 0 14 9 16 58 11
32 -2 68 -11 80 -18 32 -20 62 -82 62 -128 0 -35 -7 -49 -38 -83 -44 -47 -82
-56 -232 -57 -100 -1 -154 19 -190 68 -35 50 -37 102 -7 154 50 84 117 102
193 52z"/>
<path d="M2710 663 c-8 -3 -21 -14 -28 -25 -8 -11 -25 -18 -44 -18 -39 0 -98
-57 -98 -94 0 -57 52 -116 127 -146 48 -18 167 -9 230 19 56 25 85 61 98 119
6 29 3 38 -22 64 -44 47 -119 80 -188 84 -33 2 -67 1 -75 -3z m176 -58 c28
-14 57 -37 64 -51 12 -22 12 -29 -5 -60 -27 -50 -92 -85 -168 -91 -54 -4 -69
-1 -117 24 -66 34 -84 68 -58 111 51 85 185 116 284 67z"/>
</g>
</svg>
